# xmcd
#
# Track frame offsets:
#	150
#	19869
#	41262
#	64286
#	80351
#	102908
#	122642
#	140049
#
# Disc length: 2212 seconds
#
# Revision: 0
# Processed by: cddbd v1.5.2PL0 Copyright (c) Steve Scherf et al.
# Submitted via: audiograbber 1.83.01
#
DISCID=6708a208
DTITLE=Back to Blue - The 13th Day
DYEAR=2007
DGENRE=Blues
TTITLE0=Jerusalem Blues
TTITLE1=The 13th Day
TTITLE2=New Orleans
TTITLE3=St. James Infirmary
TTITLE4=God on a Good Day
TTITLE5=I
TTITLE6=Neon
TTITLE7=Forgotten
EXTD=
EXTT0=
EXTT1=
EXTT2=
EXTT3=
EXTT4=
EXTT5=
EXTT6=
EXTT7=
PLAYORDER=
